<svg width="52" height="52" viewBox="0 0 52 52" fill="none" xmlns="http://www.w3.org/2000/svg">
<rect width="52" height="52" fill="#2E83F0"/>
<g clip-path="url(#clip0_585_387)">
<path d="M26.0118 14.3462C26.9192 14.3462 27.7956 14.6768 28.477 15.276L28.6567 15.4452L29.471 16.2595C29.6945 16.4816 29.9863 16.6217 30.2993 16.6574L30.4568 16.6667H31.6235C32.5769 16.6666 33.4942 17.0314 34.1873 17.6861C34.8804 18.3408 35.2968 19.2358 35.351 20.1877L35.3568 20.4V21.5667C35.3568 21.8817 35.4642 22.1885 35.6578 22.4335L35.7628 22.5502L36.576 23.3645C37.25 24.0347 37.643 24.9367 37.6749 25.8867C37.7067 26.8367 37.3751 27.763 36.7475 28.4769L36.5783 28.6565L35.764 29.4709C35.542 29.6943 35.4018 29.9862 35.3662 30.2992L35.3568 30.4567V31.6234C35.3569 32.5768 34.9922 33.4941 34.3375 34.1872C33.6828 34.8803 32.7877 35.2966 31.8358 35.3509L31.6235 35.3567H30.4568C30.1423 35.3568 29.8369 35.4628 29.59 35.6577L29.4733 35.7627L28.659 36.5759C27.9888 37.2499 27.0868 37.6429 26.1368 37.6747C25.1869 37.7066 24.2605 37.3749 23.5467 36.7474L23.367 36.5782L22.5527 35.7639C22.3292 35.5418 22.0373 35.4017 21.7243 35.366L21.5668 35.3567H20.4002C19.4467 35.3567 18.5294 34.992 17.8363 34.3373C17.1432 33.6826 16.7269 32.7876 16.6727 31.8357L16.6668 31.6234V30.4567C16.6667 30.1421 16.5607 29.8368 16.3658 29.5899L16.2608 29.4732L15.4477 28.6589C14.7737 27.9887 14.3806 27.0866 14.3488 26.1367C14.3169 25.1867 14.6486 24.2604 15.2762 23.5465L15.4453 23.3669L16.2597 22.5525C16.4817 22.329 16.6219 22.0372 16.6575 21.7242L16.6668 21.5667V20.4L16.6727 20.1877C16.7247 19.2724 17.1118 18.4082 17.7601 17.76C18.4084 17.1117 19.2725 16.7246 20.1878 16.6725L20.4002 16.6667H21.5668C21.8814 16.6666 22.1867 16.5606 22.4337 16.3657L22.5503 16.2607L23.3647 15.4475C23.7115 15.0986 24.124 14.8216 24.5783 14.6326C25.0326 14.4436 25.5198 14.3463 26.0118 14.3462Z" fill="black"/>
</g>
<defs>
<clipPath id="clip0_585_387">
<rect width="28" height="28" fill="white" transform="translate(12 12)"/>
</clipPath>
</defs>
</svg>
