<svg width="52" height="52" viewBox="0 0 52 52" fill="none" xmlns="http://www.w3.org/2000/svg">
<rect width="52" height="52" fill="#2E83F0"/>
<g clip-path="url(#clip0_562_468)">
<path d="M17.8335 27.1667C17.8335 26.5478 18.0793 25.9543 18.5169 25.5167C18.9545 25.0792 19.548 24.8333 20.1668 24.8333H31.8335C32.4523 24.8333 33.0458 25.0792 33.4834 25.5167C33.921 25.9543 34.1668 26.5478 34.1668 27.1667V34.1667C34.1668 34.7855 33.921 35.379 33.4834 35.8166C33.0458 36.2542 32.4523 36.5 31.8335 36.5H20.1668C19.548 36.5 18.9545 36.2542 18.5169 35.8166C18.0793 35.379 17.8335 34.7855 17.8335 34.1667V27.1667Z" stroke="black" stroke-width="2.5" stroke-linecap="round" stroke-linejoin="round"/>
<path d="M24.8335 30.6667C24.8335 30.9761 24.9564 31.2728 25.1752 31.4916C25.394 31.7104 25.6907 31.8333 26.0002 31.8333C26.3096 31.8333 26.6063 31.7104 26.8251 31.4916C27.0439 31.2728 27.1668 30.9761 27.1668 30.6667C27.1668 30.3572 27.0439 30.0605 26.8251 29.8417C26.6063 29.6229 26.3096 29.5 26.0002 29.5C25.6907 29.5 25.394 29.6229 25.1752 29.8417C24.9564 30.0605 24.8335 30.3572 24.8335 30.6667Z" stroke="black" stroke-width="2.5" stroke-linecap="round" stroke-linejoin="round"/>
<path d="M21.3335 24.8333V19C21.3335 17.7623 21.8252 16.5753 22.7003 15.7002C23.5755 14.825 24.7625 14.3333 26.0002 14.3333C27.2378 14.3333 28.4248 14.825 29.3 15.7002C30.1752 16.5753 30.6668 17.7623 30.6668 19" stroke="black" stroke-width="2.5" stroke-linecap="round" stroke-linejoin="round"/>
</g>
<defs>
<clipPath id="clip0_562_468">
<rect width="28" height="28" fill="white" transform="translate(12 12)"/>
</clipPath>
</defs>
</svg>
