<svg width="52" height="52" viewBox="0 0 52 52" fill="none" xmlns="http://www.w3.org/2000/svg">
<rect width="52" height="52" fill="#2E83F0"/>
<g clip-path="url(#clip0_562_467)">
<path d="M25.9976 14.3333L26.1353 14.3415L26.2041 14.3508L26.2753 14.366L26.4048 14.4057C26.4942 14.4386 26.5793 14.4825 26.658 14.5363L26.7793 14.632L27.0768 14.8863C29.4303 16.8412 32.4048 17.8908 35.464 17.8462L35.863 17.8345C36.1238 17.8226 36.3811 17.8986 36.5937 18.0502C36.8063 18.2019 36.9618 18.4205 37.0355 18.671C37.6088 20.6212 37.7842 22.6667 37.5513 24.686C37.3185 26.7053 36.6821 28.6572 35.68 30.4257C34.6778 32.1942 33.3305 33.7432 31.7179 34.9807C30.1053 36.2182 28.2604 37.1189 26.2928 37.6293C26.1007 37.6791 25.8992 37.6791 25.7071 37.6293C23.7394 37.1191 21.8944 36.2184 20.2817 34.981C18.669 33.7436 17.3215 32.1946 16.3192 30.4261C15.317 28.6575 14.6805 26.7056 14.4476 24.6862C14.2146 22.6668 14.39 20.6212 14.9633 18.671C15.0369 18.4205 15.1925 18.2019 15.405 18.0502C15.6176 17.8986 15.8749 17.8226 16.1358 17.8345C19.3295 17.9805 22.4627 16.9291 24.922 14.8863L25.2288 14.6238L25.3408 14.5363C25.4195 14.4825 25.5045 14.4386 25.594 14.4057L25.7246 14.366C25.7703 14.355 25.8167 14.3468 25.8635 14.3415L25.9976 14.3333ZM26 22.5C25.4113 22.4998 24.8443 22.7221 24.4127 23.1224C23.981 23.5227 23.7166 24.0713 23.6725 24.6583L23.6666 24.8333L23.6725 25.0083C23.7012 25.387 23.822 25.753 24.0243 26.0744C24.2266 26.3959 24.5043 26.6631 24.8333 26.8528V28.9167L24.8415 29.0532C24.8766 29.3484 25.0231 29.6192 25.2512 29.81C25.4792 30.0009 25.7715 30.0975 26.0683 30.08C26.3652 30.0626 26.6442 29.9325 26.8483 29.7163C27.0524 29.5 27.1663 29.214 27.1666 28.9167L27.1678 26.854C27.6127 26.5971 27.9604 26.2006 28.1569 25.7259C28.3534 25.2513 28.3878 24.725 28.2547 24.2288C28.1216 23.7327 27.8285 23.2943 27.4208 22.9817C27.0131 22.6691 26.5137 22.4998 26 22.5Z" fill="black"/>
</g>
<defs>
<clipPath id="clip0_562_467">
<rect width="28" height="28" fill="white" transform="translate(12 12)"/>
</clipPath>
</defs>
</svg>
